PathFileType	4	(X/Y/Z)	C:\Users\WrightLab\Desktop\Jo\P1.2Trial11.trc
DataRate	CameraRate	NumFrames	NumMarkers	Units	OrigDataRate	OrigDataStartFrame	OrigNumFrames
100.00	100.00	       56	19	mm	100.00	102	       814
Frame#	Time	Headset_Front			Headset_Back			Headset_Left			Headset_Right			Left_Shoulder			Right_Shoulder			Sternum			C7			Left Elbow			Right Elbow			Left Wrist			Right Wrist			Left ASIS			Right ASIS			S2			Left Knee			Right Knee			Left Ankle			Right Ankle			
		X1	Y1	Z1	X2	Y2	Z2	X3	Y3	Z3	X4	Y4	Z4	X5	Y5	Z5	X6	Y6	Z6	X7	Y7	Z7	X8	Y8	Z8	X9	Y9	Z9	X10	Y10	Z10	X11	Y11	Z11	X12	Y12	Z12	X13	Y13	Z13	X14	Y14	Z14	X15	Y15	Z15	X16	Y16	Z16	X17	Y17	Z17	X18	Y18	Z18	X19	Y19	Z19	

102	1.010																																		-362.05420	918.75616	1460.63110																						
103	1.020																																		-363.84064	916.34961	1457.15283																						
104	1.030																																		-365.61267	914.79431	1453.40161																						
105	1.040																																		-366.83868	912.22791	1450.32202																						
106	1.050																																		-368.56253	910.21899	1446.68481																						
107	1.060																																		-370.15045	908.53571	1443.43518																						
108	1.070																																		-370.94409	907.18427	1440.42139																						
109	1.080																																		-372.41666	904.97522	1437.17981																						
110	1.090																																		-373.09280	903.44482	1434.90430																						
111	1.100																																		-374.44562	901.20789	1432.03467																						
112	1.110																												-333.49377	1020.16461	1649.44434				-374.99823	899.87640	1429.38892																						
113	1.120																												-333.77448	1020.46545	1645.77686				-375.03122	897.86450	1426.73022																						
114	1.130																												-335.14978	1019.79773	1643.61401				-375.99570	896.56702	1425.00720																						
115	1.140																												-336.84348	1018.22034	1639.72144				-376.19888	894.63068	1422.13281																						
116	1.150																												-338.22842	1018.68823	1638.02246				-376.47482	893.28503	1419.76062																						
117	1.160																												-337.79733	1019.06409	1636.39905				-377.12070	891.04663	1416.69727																						
118	1.170																												-338.88120	1019.07037	1632.64697				-377.06277	889.90997	1414.75415																						
119	1.180																												-340.10989	1018.26764	1629.75269				-376.81467	888.03394	1412.54541																			-808.30219	162.45959	1951.41455	
120	1.190																												-341.19910	1018.73181	1627.07642				-377.06155	886.91547	1409.60474																			-813.64130	161.53786	1940.70862	
121	1.200																												-342.33020	1018.03424	1624.64355				-377.28983	885.56415	1407.62158																			-818.47729	160.71150	1929.71094	
122	1.210																												-343.66614	1017.27820	1621.71484				-377.33362	884.34558	1405.04834																			-822.63080	159.28824	1921.31018	
123	1.220																												-344.66177	1017.78241	1620.22205				-377.73651	883.27484	1402.29529																			-826.16028	158.80768	1911.48828	
124	1.230																												-346.01013	1017.85962	1617.04199				-378.05563	882.67554	1399.98999																			-830.25568	157.96675	1904.04028	
125	1.240																												-347.45108	1017.57751	1615.28003				-378.29794	881.44232	1398.01245																			-832.97095	157.90948	1896.05945	
126	1.250																												-348.69012	1017.90918	1612.72205				-378.83920	880.44763	1395.20557																			-834.70477	157.14360	1891.14233	
127	1.260																												-350.03690	1017.62250	1609.66956				-379.31165	879.98346	1393.65344																			-835.49731	157.05844	1885.05774	
128	1.270																												-351.90857	1017.00214	1606.99756				-379.03162	879.78607	1391.58765																			-835.42377	155.97981	1881.92786	
129	1.280																												-352.90414	1016.57178	1607.17273				-379.92102	878.91150	1389.13281																			-834.33636	154.90163	1880.65417	
130	1.290																												-354.38412	1016.56696	1604.82849				-380.09094	879.29712	1386.57507																			-832.87915	153.58679	1880.19800	
131	1.300																												-356.14658	1016.07599	1602.77551				-380.33447	878.91693	1384.22888																			-832.28308	151.58661	1881.32019	
132	1.310																												-357.44653	1015.74811	1601.86609				-380.34427	879.27808	1382.16956																			-833.52728	150.16219	1882.27417	
133	1.320																												-358.56229	1015.91907	1600.66443				-380.73044	879.31726	1379.83923																			-834.63647	148.98193	1881.98242	
134	1.330																												-359.93658	1015.54047	1599.36646				-380.94928	879.76538	1377.91443																			-835.62781	147.12978	1882.44812	
135	1.340																												-361.69589	1015.47089	1598.21924				-381.28839	880.54254	1375.46326																			-836.17010	145.11549	1882.88464	
136	1.350																												-363.05511	1015.67255	1596.98474				-381.59756	880.77625	1372.73376																			-835.83179	144.00558	1882.23718	
137	1.360																												-364.14877	1016.11163	1595.66992				-381.81024	880.85577	1371.64075																			-835.43353	143.80392	1881.89880	
138	1.370																												-366.13019	1016.49139	1594.06348				-381.79190	881.83960	1369.40894																			-835.31055	143.84032	1881.35229	
139	1.380																												-367.48282	1016.70270	1592.77380				-382.74014	882.00433	1367.21936																			-835.59113	144.02606	1881.44214	
140	1.390																												-368.93307	1017.29657	1591.84033				-382.70291	882.22302	1365.42065																			-835.93262	143.95874	1881.60107	
141	1.400																												-370.69940	1017.71088	1589.65234				-382.38440	883.09302	1364.76538																			-836.25116	143.92787	1881.90125	
142	1.410																												-372.35849	1018.04907	1588.51965				-382.83661	884.18164	1362.69934																			-836.40686	143.81892	1881.95020	
143	1.420																												-373.99716	1018.72522	1586.77698				-382.84424	884.84491	1360.79675																			-836.57825	143.83286	1882.14600	
144	1.430																												-375.41864	1019.17877	1586.20618				-382.31100	885.36621	1359.35901																			-836.66730	143.71222	1882.08228	
145	1.440																												-377.81131	1019.15356	1583.83508				-382.35715	885.83643	1357.87573																			-836.82916	143.52530	1882.08398	
146	1.450																												-379.04074	1019.37708	1582.07422				-382.23126	886.85992	1356.01990																			-836.89685	143.38939	1881.92896	
147	1.460																												-379.87619	1020.36322	1579.86682				-382.27380	887.20227	1353.96155																			-836.94812	143.33411	1881.88196	
148	1.470																												-379.94150	1021.08136	1578.05493				-381.60236	887.91803	1352.48218																			-836.97412	143.30423	1881.81116	
149	1.480																												-381.58853	1021.02960	1576.93542				-381.03012	888.04114	1350.41028																			-837.05316	143.29674	1881.77332	
150	1.490																												-383.12234	1021.33527	1574.75476				-380.83914	888.36859	1348.39807																			-837.04108	143.30688	1881.66284	
151	1.500																												-382.32443	1022.28931	1573.54614				-380.69516	888.95013	1346.38281																			-836.97235	143.29317	1881.51978	
152	1.510																												-382.62241	1022.37744	1570.84875				-380.52148	889.26733	1343.64795																			-836.84711	143.25639	1881.37732	
153	1.520																												-383.06937	1023.39673	1570.14661				-379.87833	889.84503	1342.64441																			-836.74158	143.31802	1881.36121	
154	1.530																												-382.31161	1024.12292	1568.42822				-379.44205	890.17633	1341.63696																			-836.62366	143.19568	1881.15247	
155	1.540																												-382.06516	1023.95435	1567.12781				-378.62329	890.95673	1340.24268																			-836.49078	143.09262	1880.98035	
156	1.550																												-382.80237	1024.02332	1565.49426				-378.05905	891.94104	1338.18665																			-836.45337	143.06076	1880.90698	
157	1.560																												-382.32327	1025.13379	1564.30811				-377.83060	892.96112	1336.72461																			-836.32574	143.06985	1880.83081	
